<svg xmlns="http://www.w3.org/2000/svg" height="670.5" width="748.6" xmlns:xlink="http://www.w3.org/1999/xlink"><g transform="translate(-303.93 -357.917)"><path d="M464.1 918.562c0 1.423-133.8-180.8-133.8-180.8M494 918.562l176.5-176.5c-1.423 0-99.64-136.7-99.64-136.7" stroke="#8e963f" stroke-width="4" fill="none"/><path d="M669.4 740.962l95-191.09L894 461.615M763 551.292l-57-149.46" stroke="#8e963f" stroke-width="4" fill="none"/><path d="M473.665 890.842c-25.75 0-46.62 20.88-46.62 46.62 0 .944.04 1.882.094 2.812v43.03c-.142.6-.22 1.24-.22 1.875 0 5.5 5.56 9.937 12.44 9.937 6.878 0 12.47-4.435 12.47-9.938 0-.56-.076-1.123-.187-1.657h.25v-4.844c.712.376 1.423.72 2.156 1.06 2.61 7.294 6.973 14.18 14.03 19.28 25.62 18.51 76.158 28.47 76.158 28.47s-51.26-24.22-52.69-39.88c-.192-2.118-.197-4.508-.093-7.06 1.284-.53 2.527-1.113 3.75-1.75v4.5c-.142.6-.22 1.24-.22 1.874 0 5.502 5.56 9.938 12.44 9.938s12.47-4.435 12.47-9.938c0-.56-.076-1.122-.187-1.656h.25v-40.53c.216-1.82.344-3.654.344-5.53 0-25.75-20.88-46.62-46.62-46.62z" fill="#629626"/><g id="a"><path d="M707.357 430.154l1.156 3.268.917-3.627.957 2.83.996-4.544.558 3.31 1.596-5.102.16 1.116 1.514-5.062.798 1.753.717-2.87.518 1.395.518-3.388.52 1.156 1.275-4.066.32 1.116.796-4.145.56 1.156 1.155-4.465.438 1.196s.4-4.224.4-4.184c0 .04.278.678.278.678l.24-2.193.4 1.556-.04-5.82s-16.823 28.86-16.744 28.94z" stroke="#391205" fill="#fff" stroke-width=".1584"/><path stroke-linejoin="round" d="M697.584 424.294s-10.403 13.113-12.316 14.31c1.723-.802 6.02-2.51 6.02-2.51s-3.47 4.423-3.47 4.462c0 .04 11.72-5.82 13.753-9.964.325-.66-4.065-6.22-3.984-6.298z" stroke="#391205" stroke-linecap="round" stroke-width=".38016" fill="#e44818"/><path d="M703.603 359.163c-41.658.234-16.504 73.385 1.806 73.306 9.677-.05 46.377-73.576-1.807-73.307z" stroke="#391205" stroke-width=".49104000000000003" fill="#8e963f"/><path d="M688.983 392.79c9.248 1.015 11.64-20.656 6.764-21.163-4.966-.517-11.715 20.386-6.764 21.162z" stroke="#391205" fill="#fdf6f8" stroke-width=".1584"/><path d="M702.59 373.322c.225-3.494 2.74-4.6 6.123-5.693 25.755-8.306-24.98-8.766-13.633.6 2.238 1.846 7.098 1.856 7.51 5.092z" stroke="#391205" stroke-width=".5068800000000001" fill="#639726"/><path d="M708.23 371.88c-4.345 2.484 3.634 26.66 10.65 21.24 7.67-5.92-6.137-23.82-10.65-21.24z" stroke="#391205" fill="#fdf6f8" stroke-width=".1584"/><path d="M701.91 422.678s1.126-11.555-3.27-10.766c-4.398.79 3.27 10.766 3.27 10.766zM705.964 421.712s6.256-9.583 1.747-10.035c-4.51-.45-1.746 10.035-1.746 10.035z" stroke="#130b08" stroke-width=".6177600000000001" fill="#391205"/><path d="M712.775 375.57c4.623-.08 5.78 9.01-.38 8.81-6.158-.2-3.566-8.81.38-8.81zM694.21 375.983c6.214.543 3.015 10.405-3.248 9.287-3.743-.67-.93-9.653 3.25-9.287zM686.164 399.378s-2.153-1.096-1.774-1.495c.38-.398 1.774 1.495 1.774 1.495zM683.408 399.267s.418 3.467 1.355 3.03c.937-.44-1.355-3.03-1.355-3.03zM685.546 399.964s.46 3.09 1.256 2.71c.797-.378-1.256-2.71-1.256-2.71zM688.112 403.702s2.014 2.65 2.51 2.013c.5-.637-2.51-2.013-2.51-2.013zM685.578 405s1.495 2.71 1.974 2.133c.478-.578-1.974-2.132-1.974-2.132z" stroke="#391205" fill="#391205" stroke-width=".1584"/></g><use xlink:href="#a" transform="translate(-375.8 338.79)" height="600" width="1200"/><use xlink:href="#a" transform="translate(-136.655 204.982)" height="600" width="1200"/><use xlink:href="#a" transform="translate(185.053 58.363)" height="600" width="1200"/><path id="b" d="M679.498 740.007c0 5.523-4.477 10.004-9.997 10.004-5.522 0-9.995-4.476-9.995-10.003 0-5.522 4.477-10.003 9.996-10.003 5.525 0 9.998 4.477 9.998 10.003z" fill="#629626"/><use xlink:href="#b" transform="translate(95.426 -190.007)" height="600" width="1200"/><path d="M234.8 599h-63.75" transform="matrix(.97602 0 0 1.99933 369.653 -242.87)" stroke="#000" fill="none"/><path d="M200 598.5l5-2v4z" transform="matrix(1.7753 0 0 1.7753 181.502 -107.91)" stroke="#000"/><text transform="translate(270.488 364.214)" font-size="20" y="595.591" x="336.094" font-family="serif" letter-spacing="0" word-spacing="0"><tspan x="336.094" y="595.591"><tspan y="595.591" x="336.094">corps</tspan></tspan></text><g stroke="#000"><path d="M234.8 599h-63.75" transform="matrix(.97602 0 0 1.99933 545.615 -457.144)" fill="none"/><path d="M200 598.5l5-2v4z" transform="matrix(1.7753 0 0 1.7753 357.464 -322.186)"/></g><text transform="translate(276.325 361.49)" font-size="20" y="383.623" x="504.156" font-family="Purisa" letter-spacing="0" word-spacing="0"><tspan x="504.156" y="383.623"><tspan y="383.623" x="504.156" font-family="Serif">noeud précédent</tspan></tspan></text><g stroke="#000"><path d="M234.8 599h-63.75" transform="matrix(.97602 0 0 1.99933 642.695 -647.727)" fill="none"/><path d="M200 598.5l5-2v4z" transform="matrix(1.7753 0 0 1.7753 454.544 -512.77)"/></g><text transform="translate(295.243 381.92)" font-size="20" y="173.904" x="579.938" font-family="Serif" letter-spacing="0" word-spacing="0"><tspan x="579.938" y="173.904"><tspan y="173.904" x="579.938">noeud</tspan></tspan></text><g stroke="#000"><path d="M234.8 599h-63.75" transform="matrix(.97602 0 0 1.99933 778.093 -743.268)" fill="none"/><path d="M200 598.5l5-2v4z" transform="matrix(1.7753 0 0 1.7753 589.942 -608.31)"/></g><text transform="translate(291.204 372.546)" font-size="20" y="87.935" x="721.594" font-family="Serif" letter-spacing="0" word-spacing="0"><tspan x="721.594" y="87.935"><tspan y="87.935" x="721.594">tête</tspan></tspan></text></g></svg>