<svg xmlns="http://www.w3.org/2000/svg" height="670.5" width="593" xmlns:xlink="http://www.w3.org/1999/xlink"><g transform="translate(-225.68 -417.094)"><path d="M590.852 797.24l25.3-188.19M591.152 800.14l95-191.09M385.852 977.74c0 1.422-133.8-180.8-133.8-180.8M415.752 977.74l176.5-176.5c-1.423 0-99.64-136.7-99.64-136.7" stroke="#8e963f" stroke-width="4" fill="none"/><path d="M686.152 609.05l129.6-88.258" stroke="#e44818" stroke-dasharray="12, 4" stroke-width="4" fill="none"/><path d="M684.752 610.47l-57-149.46" stroke="#8e963f" stroke-width="4" fill="none"/><path d="M395.417 950.02c-25.75 0-46.62 20.88-46.62 46.62 0 .943.04 1.88.094 2.81v43.03c-.14.6-.217 1.24-.217 1.875 0 5.502 5.56 9.938 12.44 9.938 6.877 0 12.47-4.435 12.47-9.938 0-.56-.077-1.122-.188-1.656h.25v-4.845c.712.378 1.423.722 2.156 1.062 2.61 7.293 6.975 14.18 14.03 19.28 25.62 18.51 76.16 28.47 76.16 28.47s-51.26-24.22-52.69-39.88c-.192-2.12-.197-4.51-.093-7.062 1.284-.53 2.527-1.112 3.75-1.75v4.5c-.142.6-.22 1.24-.22 1.875 0 5.502 5.56 9.938 12.44 9.938s12.47-4.435 12.47-9.938c0-.56-.076-1.122-.186-1.656h.25v-40.53c.216-1.818.344-3.653.344-5.53 0-25.75-20.88-46.62-46.62-46.62z" fill="#629626"/><g id="a"><path d="M629.11 489.33l1.155 3.27.917-3.628.957 2.83.995-4.544.558 3.31 1.595-5.103.16 1.116 1.514-5.062.798 1.754.717-2.87.518 1.395.518-3.388.52 1.155 1.274-4.066.32 1.115.796-4.146.558 1.155 1.157-4.463.438 1.195s.4-4.224.4-4.184c0 .04.278.677.278.677l.24-2.192.398 1.555-.04-5.82s-16.82 28.86-16.742 28.94z" stroke="#391205" fill="#fff" stroke-width=".1584"/><path stroke-linejoin="round" d="M619.336 483.47s-10.403 13.114-12.316 14.31c1.723-.802 6.02-2.51 6.02-2.51s-3.47 4.423-3.47 4.463c0 .04 11.72-5.82 13.753-9.965.324-.66-4.066-6.218-3.985-6.298z" stroke="#391205" stroke-linecap="round" stroke-width=".38016" fill="#e44818"/><path d="M625.356 418.34c-41.66.234-16.505 73.384 1.805 73.305 9.68-.047 46.38-73.575-1.804-73.305z" stroke="#391205" stroke-width=".49104000000000003" fill="#8e963f"/><path d="M610.736 451.966c9.247 1.016 11.64-20.655 6.763-21.162-4.967-.517-11.716 20.385-6.764 21.162z" stroke="#391205" fill="#fdf6f8" stroke-width=".1584"/><path d="M624.342 432.5c.225-3.496 2.74-4.603 6.123-5.694 25.756-8.305-24.98-8.766-13.633.6 2.238 1.847 7.098 1.857 7.51 5.093z" stroke="#391205" stroke-width=".5068800000000001" fill="#639726"/><path d="M629.98 431.057c-4.343 2.484 3.636 26.658 10.65 21.24 7.67-5.92-6.135-23.822-10.65-21.24z" stroke="#391205" fill="#fdf6f8" stroke-width=".1584"/><path d="M623.66 481.855s1.128-11.555-3.27-10.766c-4.396.788 3.27 10.765 3.27 10.765zM627.716 480.89s6.256-9.584 1.747-10.036c-4.51-.45-1.747 10.035-1.747 10.035z" stroke="#130b08" stroke-width=".6177600000000001" fill="#391205"/><path d="M634.527 434.748c4.623-.08 5.78 9.008-.38 8.808-6.158-.2-3.566-8.808.38-8.808zM615.963 435.16c6.214.543 3.014 10.405-3.25 9.286-3.742-.668-.93-9.652 3.25-9.286zM607.916 458.555s-2.152-1.096-1.774-1.495c.38-.398 1.774 1.495 1.774 1.495zM605.16 458.444s.42 3.467 1.355 3.028c.937-.438-1.355-3.028-1.355-3.028zM607.298 459.14s.46 3.09 1.256 2.71c.797-.378-1.256-2.71-1.256-2.71zM609.864 462.88s2.014 2.65 2.51 2.012c.5-.638-2.51-2.013-2.51-2.013zM607.33 464.178s1.495 2.71 1.974 2.132c.478-.578-1.974-2.132-1.974-2.132z" stroke="#391205" fill="#391205" stroke-width=".1584"/></g><use xlink:href="#a" transform="translate(-375.8 338.79)" height="600" width="1200"/><use xlink:href="#a" transform="translate(-136.655 204.982)" height="600" width="1200"/><path id="b" d="M601.25 799.184c0 5.523-4.477 10.004-9.997 10.004-5.523 0-9.996-4.477-9.996-10.004 0-5.523 4.477-10.004 9.996-10.004 5.524 0 9.997 4.477 9.997 10.004z" fill="#629626"/><use xlink:href="#b" transform="translate(95.426 -190.007)" height="600" width="1200"/><path d="M614.752 610.47l-57-149.46" stroke="#8e963f" stroke-width="4" fill="none"/><path d="M559.11 489.33l1.155 3.27.917-3.628.957 2.83.995-4.544.558 3.31 1.595-5.103.16 1.116 1.514-5.062.798 1.754.717-2.87.518 1.395.518-3.388.52 1.155 1.274-4.066.32 1.115.796-4.146.558 1.155 1.157-4.463.438 1.195s.4-4.224.4-4.184c0 .04.278.677.278.677l.24-2.192.398 1.555-.04-5.82s-16.82 28.86-16.742 28.94z" stroke="#391205" fill="#fff" stroke-width=".1584"/><path stroke-linejoin="round" d="M549.336 483.47s-10.403 13.114-12.316 14.31c1.723-.802 6.02-2.51 6.02-2.51s-3.47 4.423-3.47 4.463c0 .04 11.72-5.82 13.753-9.965.324-.66-4.066-6.218-3.985-6.298z" stroke="#391205" stroke-linecap="round" stroke-width=".38016" fill="#e44818"/><path d="M555.356 418.34c-41.66.234-16.505 73.384 1.805 73.305 9.68-.047 46.38-73.575-1.804-73.305z" stroke="#391205" stroke-width=".49104000000000003" fill="#8e963f"/><path d="M540.736 451.966c9.247 1.016 11.64-20.655 6.763-21.162-4.967-.517-11.716 20.385-6.764 21.162z" stroke="#391205" fill="#fdf6f8" stroke-width=".1584"/><path d="M554.342 432.5c.225-3.496 2.74-4.603 6.123-5.694 25.756-8.305-24.98-8.766-13.633.6 2.238 1.847 7.098 1.857 7.51 5.093z" stroke="#391205" stroke-width=".5068800000000001" fill="#639726"/><path d="M559.98 431.057c-4.343 2.484 3.636 26.658 10.65 21.24 7.67-5.92-6.135-23.822-10.65-21.24z" stroke="#391205" fill="#fdf6f8" stroke-width=".1584"/><path d="M553.66 481.855s1.128-11.555-3.27-10.766c-4.396.788 3.27 10.765 3.27 10.765zM557.716 480.89s6.256-9.584 1.747-10.036c-4.51-.45-1.747 10.035-1.747 10.035z" stroke="#130b08" stroke-width=".6177600000000001" fill="#391205"/><path d="M564.527 434.748c4.623-.08 5.78 9.008-.38 8.808-6.158-.2-3.566-8.808.38-8.808zM545.963 435.16c6.214.543 3.014 10.405-3.25 9.286-3.742-.668-.93-9.652 3.25-9.286zM537.916 458.555s-2.152-1.096-1.774-1.495c.38-.398 1.774 1.495 1.774 1.495zM535.16 458.444s.42 3.467 1.355 3.028c.937-.438-1.355-3.028-1.355-3.028zM537.298 459.14s.46 3.09 1.256 2.71c.797-.378-1.256-2.71-1.256-2.71zM539.864 462.88s2.014 2.65 2.51 2.012c.5-.638-2.51-2.013-2.51-2.013zM537.33 464.178s1.495 2.71 1.974 2.132c.478-.578-1.974-2.132-1.974-2.132z" stroke="#391205" fill="#391205" stroke-width=".1584"/><use xlink:href="#b" transform="translate(25.426 -190.007)" height="600" width="1200"/></g></svg>